Coordinates
version=1
nRows=25
nColumns=28
inDegrees=yes

Units are S.I. units (second, meters, Newtons, ...)
Angles are in degrees.

endheader
time	pelvis_tilt	pelvis_list	pelvis_rotation	pelvis_tx	pelvis_ty	pelvis_tz	hip_flexion_r	hip_adduction_r	hip_rotation_r	knee_angle_r	ankle_angle_r	subtalar_angle_r	mtp_angle_r	hip_flexion_l	hip_adduction_l	hip_rotation_l	knee_angle_l	socket_flexion	socket_adduction	socket_rotation	socket_tx	socket_ty	socket_tz	foot_flex	lumbar_extension	lumbar_bending	lumbar_rotation
      0.32500000	      4.20484190	     -3.84776815	     -7.60263231	     -0.41848991	      1.01682939	      0.29169561	     10.68004681	      5.63276636	      5.22190809	    -64.11014364	      2.80680419	    -15.71973371	     26.54806958	      0.35457364	     -2.20583435	     -9.52634817	    -17.76789371	      0.00000000	      0.00000000	      0.00000000	      0.00000000	     -0.00800967	      0.00000000	      2.02920975	    -12.69065148	      0.01305473	      8.33937973
      0.32916667	      4.18944173	     -4.02311041	     -7.35154231	     -0.41358028	      1.01704313	      0.29083561	     11.20546186	      5.81308549	      4.99115506	    -63.77545249	      3.62106775	    -14.76147012	     26.94573505	      0.01718403	     -2.31470284	     -9.23149719	    -17.64972746	      0.00000000	      0.00000000	      0.00000000	      0.00000000	     -0.00814309	      0.00000000	      2.17273566	    -12.67047144	      0.36236987	      7.82244638
      0.33333333	      4.23649167	     -4.01600469	     -7.25736007	     -0.40913618	      1.01740468	      0.29039402	     11.74976771	      5.87568962	      4.98922657	    -63.47738329	      3.67005070	    -14.75120841	     26.95568365	     -0.30535476	     -2.24548798	     -9.22444970	    -17.62005789	      0.00000000	      0.00000000	      0.00000000	      0.00000000	     -0.00786329	      0.00000000	      2.23602461	    -12.77814486	      0.35178424	      7.80755221
      0.33750000	      4.23493418	     -4.17824716	     -7.05002943	     -0.40417536	      1.01761706	      0.28971130	     12.22052699	      6.07831620	      4.84373939	    -63.04871417	      4.32203448	    -14.22859185	     27.21909652	     -0.68390151	     -2.34560946	     -8.99612829	    -17.46853588	      0.00000000	      0.00000000	      0.00000000	      0.00000000	     -0.00795998	      0.00000000	      2.39721401	    -12.75784339	      0.64325710	      7.43470620
      0.34166667	      4.26703612	     -4.20265970	     -6.95871017	     -0.39957190	      1.01786154	      0.28926538	     12.73144725	      6.16079717	      4.83618353	    -62.66434063	      4.49335358	    -14.17399938	     27.26317416	     -1.04036039	     -2.30697858	     -8.92779931	    -17.37370416	      0.00000000	      0.00000000	      0.00000000	      0.00000000	     -0.00780953	      0.00000000	      2.51541179	    -12.80526169	      0.69407330	      7.36893018
      0.34583333	      4.30708391	     -4.20009234	     -6.87928377	     -0.39522774	      1.01807532	      0.28890471	     13.27352241	      6.22318921	      4.83287733	    -62.30317880	      4.56885775	    -14.16644552	     27.27448627	     -1.35119011	     -2.24997496	     -8.91451862	    -17.35127526	      0.00000000	      0.00000000	      0.00000000	      0.00000000	     -0.00763093	      0.00000000	      2.57336767	    -12.92659521	      0.70009118	      7.34808522
      0.35000000	      4.31177182	     -4.47588858	     -6.58999889	     -0.39027144	      1.01828901	      0.28810502	     13.64160222	      6.52638104	      4.63454396	    -61.67911484	      5.26249238	    -13.68580071	     27.46067861	     -1.72771044	     -2.48646880	     -8.61702707	    -17.22727102	      0.00000000	      0.00000000	      0.00000000	      0.00000000	     -0.00786703	      0.00000000	      2.71642811	    -12.92692720	      1.14071971	      6.86130827
      0.35416667	      4.34556725	     -4.46170856	     -6.52155849	     -0.38597510	      1.01840041	      0.28775726	     14.18468421	      6.56641924	      4.63536989	    -61.28483765	      5.32028001	    -13.68887256	     27.46344152	     -2.03687269	     -2.41812710	     -8.60251076	    -17.18919984	      0.00000000	      0.00000000	      0.00000000	      0.00000000	     -0.00774577	      0.00000000	      2.78375811	    -13.05174661	      1.13201704	      6.84686362
      0.35833333	      4.35579662	     -4.63668325	     -6.31234711	     -0.38109806	      1.01858682	      0.28715287	     14.55825130	      6.78819554	      4.54838843	    -60.63880087	      5.82205689	    -13.54669406	     27.51365920	     -2.41674032	     -2.54993114	     -8.38762054	    -17.04570216	      0.00000000	      0.00000000	      0.00000000	      0.00000000	     -0.00780219	      0.00000000	      2.94141428	    -13.03896321	      1.41191614	      6.55557098
      0.36250000	      4.38422392	     -4.62139416	     -6.24508439	     -0.37682458	      1.01863025	      0.28683592	     15.08774643	      6.82214048	      4.54796641	    -60.19964095	      5.87941572	    -13.54911054	     27.51203130	     -2.71897303	     -2.48499107	     -8.37505283	    -17.00961284	      0.00000000	      0.00000000	      0.00000000	      0.00000000	     -0.00770936	      0.00000000	      3.00752353	    -13.15999731	      1.39707659	      6.53754393
      0.36666667	      4.38334306	     -4.64352324	     -6.11975830	     -0.37197873	      1.01881989	      0.28645724	     15.47505299	      6.90383616	      4.58244618	    -59.51340033	      6.09485343	    -13.54762861	     27.51649197	     -3.07368559	     -2.45740472	     -8.27460918	    -16.86789318	      0.00000000	      0.00000000	      0.00000000	      0.00000000	     -0.00746346	      0.00000000	      3.16929122	    -13.11124960	      1.44339346	      6.45464856
      0.37083333	      4.40468877	     -4.64498645	     -6.05149013	     -0.36775882	      1.01874156	      0.28612331	     15.99802397	      6.94872579	      4.57437859	    -59.04212650	      6.18321302	    -13.55439338	     27.51554149	     -3.36625988	     -2.41260021	     -8.25365059	    -16.83952360	      0.00000000	      0.00000000	      0.00000000	      0.00000000	     -0.00751365	      0.00000000	      3.22962312	    -13.24336420	      1.45116131	      6.42491591
      0.37500000	      4.40062135	     -4.95536524	     -5.74109218	     -0.36284797	      1.01892419	      0.28547642	     16.25823741	      7.29545724	      4.39341070	    -58.14635169	      6.74441735	    -13.51630209	     27.44446631	     -3.72490219	     -2.71643249	     -7.92729597	    -16.72296283	      0.00000000	      0.00000000	      0.00000000	      0.00000000	     -0.00768043	      0.00000000	      3.37931642	    -13.21735348	      1.91505046	      5.99427765
      0.37916667	      4.40682618	     -4.92984113	     -5.62226765	     -0.35837911	      1.01892623	      0.28508290	     16.69121739	      7.30611865	      4.41886779	    -57.49730286	      6.82460752	    -13.51948417	     27.40664520	     -4.02764459	     -2.64511611	     -7.87536721	    -16.64358219	      0.00000000	      0.00000000	      0.00000000	      0.00000000	     -0.00755916	      0.00000000	      3.48493760	    -13.26933904	      1.90668190	      5.92900125
      0.38333333	      4.40791177	     -4.95140192	     -5.49058837	     -0.35389403	      1.01893907	      0.28472931	     17.09311382	      7.36824914	      4.41799352	    -56.78256267	      6.97888862	    -13.54644570	     27.35218455	     -4.33039552	     -2.63317692	     -7.77526407	    -16.57424365	      0.00000000	      0.00000000	      0.00000000	      0.00000000	     -0.00747656	      0.00000000	      3.59523872	    -13.31162851	      1.94608130	      5.82164851
      0.38750000	      4.40764201	     -4.95790509	     -5.37134357	     -0.34943455	      1.01890635	      0.28441050	     17.49292374	      7.41322104	      4.41638518	    -56.05598849	      7.11643972	    -13.58191287	     27.30162715	     -4.62298724	     -2.60554414	     -7.69798298	    -16.50783013	      0.00000000	      0.00000000	      0.00000000	      0.00000000	     -0.00737776	      0.00000000	      3.70050512	    -13.34895800	      1.98135160	      5.73463876
      0.39166667	      4.39807068	     -4.99994676	     -5.22569895	     -0.34502378	      1.01884130	      0.28405609	     17.87829087	      7.48890376	      4.40105487	    -55.28242805	      7.27698360	    -13.64216898	     27.22115870	     -4.90155536	     -2.62287101	     -7.58003309	    -16.44920768	      0.00000000	      0.00000000	      0.00000000	      0.00000000	     -0.00737433	      0.00000000	      3.80658741	    -13.39451075	      2.04894859	      5.60811190
      0.39583333	      4.38360830	     -5.01525126	     -5.08872996	     -0.34054064	      1.01878974	      0.28370443	     18.24912419	      7.53323950	      4.39145802	    -54.47750435	      7.40776200	    -13.70517364	     27.13888681	     -5.17932343	     -2.60944738	     -7.48456320	    -16.39166380	      0.00000000	      0.00000000	      0.00000000	      0.00000000	     -0.00726424	      0.00000000	      3.91288686	    -13.41824760	      2.09255096	      5.49942027
      0.40000000	      4.36372491	     -5.03124870	     -4.95220599	     -0.33612919	      1.01869037	      0.28336556	     18.62030829	      7.57401341	      4.38392149	    -53.64975059	      7.52423024	    -13.77859804	     27.04616992	     -5.44125323	     -2.60245257	     -7.38346256	    -16.34404619	      0.00000000	      0.00000000	      0.00000000	      0.00000000	     -0.00721213	      0.00000000	      4.01772933	    -13.44950037	      2.13124093	      5.38990725
      0.40416667	      4.33767326	     -5.03391401	     -4.81895076	     -0.33168653	      1.01856186	      0.28306048	     18.98038950	      7.60326360	      4.37662064	    -52.78816014	      7.62716715	    -13.86004325	     26.94814138	     -5.69787467	     -2.58235542	     -7.28953559	    -16.29925476	      0.00000000	      0.00000000	      0.00000000	      0.00000000	     -0.00716739	      0.00000000	      4.12340664	    -13.46672238	      2.15883626	      5.28711411
      0.40833333	      4.30636314	     -5.03815517	     -4.68032124	     -0.32728756	      1.01843271	      0.28275202	     19.33125774	      7.63021832	      4.37258423	    -51.89491618	      7.71700320	    -13.95684740	     26.83380018	     -5.93916885	     -2.56796215	     -7.18517869	    -16.26494946	      0.00000000	      0.00000000	      0.00000000	      0.00000000	     -0.00708813	      0.00000000	      4.22775916	    -13.48488134	      2.18345249	      5.17763255
      0.41250000	      4.25732198	     -5.32625353	     -4.27015289	     -0.32289926	      1.01829052	      0.28202698	     19.60253417	      7.89080708	      4.09161194	    -50.82017107	      7.69816739	    -14.55369154	     26.01362056	     -6.13379156	     -2.89573130	     -6.74941376	    -16.26872358	      0.00000000	      0.00000000	      0.00000000	      0.00000000	     -0.00746877	      0.00000000	      4.33812495	    -13.51766095	      2.64822937	      4.54785824
      0.41666667	      4.22244421	     -5.23534665	     -4.20769432	     -0.31853531	      1.01808849	      0.28184292	     19.95963160	      7.82170736	      4.14438546	    -49.93365580	      7.75954008	    -14.58374585	     25.92371636	     -6.37139053	     -2.77282598	     -6.74497618	    -16.22978297	      0.00000000	      0.00000000	      0.00000000	      0.00000000	     -0.00729580	      0.00000000	      4.43042754	    -13.53344210	      2.53952716	      4.52745012
      0.42083333	      4.17460610	     -5.15836294	     -4.12502308	     -0.31417830	      1.01787930	      0.28166191	     20.29942359	      7.77259964	      4.21000005	    -48.98615436	      7.82286839	    -14.63945267	     25.81463143	     -6.58686219	     -2.67287504	     -6.69971790	    -16.20575659	      0.00000000	      0.00000000	      0.00000000	      0.00000000	     -0.00711017	      0.00000000	      4.52973422	    -13.53435447	      2.44632608	      4.49906641
      0.42500000	      4.11536652	     -5.09228558	     -4.02569048	     -0.30978841	      1.01765719	      0.28148003	     20.61854289	      7.73382838	      4.26912018	    -47.99253669	      7.87806154	    -14.72041845	     25.68816858	     -6.78677465	     -2.58952000	     -6.64082193	    -16.18932730	      0.00000000	      0.00000000	      0.00000000	      0.00000000	     -0.00696435	      0.00000000	      4.63048255	    -13.50911613	      2.37336633	      4.46307209
